<svg xmlns="http://www.w3.org/2000/svg" viewBox="0 0 174.65 38.84"><defs><style>.cls-1{fill:#fff;}</style></defs><title>Asset 2</title><g id="Layer_2" data-name="Layer 2"><g id="Layer_5" data-name="Layer 5"><path class="cls-1" d="M130,13.17c0-.2.05-.38.05-.55,0-1.91,0-3.82,0-5.73V6.83c0-1.38-.4-1.79-1.76-2l-1.11-.18c-.06-.34-.16-.67.24-1a26.76,26.76,0,0,0,7.13-1c.27.18.24.41.16.65a6.79,6.79,0,0,0-.31,2.28c0,1.34,0,2.68,0,4,0,4-.06,8.08-.07,12.12,0,1.4.06,2.8.1,4.2a2,2,0,0,0,0,.42c.15.59.27.69.88.71h1.22a1.06,1.06,0,0,1-.16,1,17.74,17.74,0,0,1-6.14,1.64c-.4-.69-.08-1.49-.27-2.28a1.77,1.77,0,0,0-.39.14,14.2,14.2,0,0,1-4,1.81,4.65,4.65,0,0,1-3.2-.3,5.89,5.89,0,0,1-2.89-3,9.71,9.71,0,0,1-.75-5.4,8.07,8.07,0,0,1,2-4.4A6.4,6.4,0,0,1,122.4,15a14.24,14.24,0,0,1,5.32-1.77,14.89,14.89,0,0,1,1.89,0Zm0,8.24c0-1.32,0-2.64,0-4a2.43,2.43,0,0,0-1-2,3.73,3.73,0,0,0-3.14-.74A3,3,0,0,0,124,16a5.32,5.32,0,0,0-.87,2.37,10.7,10.7,0,0,0,.37,4.9,5.4,5.4,0,0,0,1.79,2.69,3.84,3.84,0,0,0,3.77.66,1.17,1.17,0,0,0,.95-1.35C130,24,130,22.69,130,21.41Z"/><path class="cls-1" d="M38.6,6.11V5.23h2.53c3.19,0,6.37,0,9.56,0a10.31,10.31,0,0,1,3.4.55,5.62,5.62,0,0,1,3.75,3.92,7.62,7.62,0,0,1-.94,6.62,6.81,6.81,0,0,1-2.31,2.12,9.14,9.14,0,0,1-2.94,1.08,9.32,9.32,0,0,1-2.84.1,1.32,1.32,0,0,1-1.16-1.06l.21-.25a6,6,0,0,0,2.24,0A3.63,3.63,0,0,0,53,15.71a10.15,10.15,0,0,0,.26-4.21,6.32,6.32,0,0,0-1-2.89,4.67,4.67,0,0,0-3.61-2.08,4.09,4.09,0,0,0-1.93.15,2.3,2.3,0,0,0-.31,1.4l0,11.76c0,1.63,0,3.25,0,4.88a8.27,8.27,0,0,0,.2,2.1,1.21,1.21,0,0,0,.92.95c.67.15,1.35.26,2,.38.14,0,.28,0,.4,0a.84.84,0,0,1,0,1H38.5c0-.24,0-.49,0-.81a3.22,3.22,0,0,1,.5-.16c.49-.1,1-.17,1.49-.26a1.23,1.23,0,0,0,1.07-1.09,5.23,5.23,0,0,0,.11-.78c0-4.26.09-8.53.1-12.79,0-1.66,0-3.33-.11-5a3.45,3.45,0,0,0-.17-1c-.21-.59-.75-.74-1.3-.85S39.12,6.21,38.6,6.11Z"/><path class="cls-1" d="M174.65,28.19c-.05.36-.08.65-.12.95h-8.34v-.91l1.16-.27a.91.91,0,0,0,.74-.86c0-.44.1-.89.11-1.33,0-1.71,0-3.41,0-5.12a14.18,14.18,0,0,0-.25-2.53,2.75,2.75,0,0,0-2.25-2.28,3.91,3.91,0,0,0-3,.67.89.89,0,0,0-.39.79v1.58c0,2.3,0,4.59,0,6.89a10.87,10.87,0,0,0,.12,1.39.82.82,0,0,0,.63.74c.43.12.86.21,1.36.34v.92a21.31,21.31,0,0,1-2.77-.07c-1,0-1.91,0-2.87,0s-1.86.08-2.78.12a.93.93,0,0,1,0-1c.33-.07.64-.14,1-.19a1,1,0,0,0,.85-.76,6.55,6.55,0,0,0,.22-1.3c0-2.83,0-5.65,0-8.48a1.62,1.62,0,0,0-1-1.63l-.82-.37.07-.84a21.32,21.32,0,0,0,6-1.65c.08.9,0,1.7,0,2.54a1.46,1.46,0,0,0,.77-.4,11,11,0,0,1,3.54-1.84,4.32,4.32,0,0,1,4.62,1.65,6,6,0,0,1,1.07,2.93c.07.74.12,1.49.13,2.24,0,2.11,0,4.23,0,6.34,0,.16,0,.32,0,.49a.82.82,0,0,0,.51.76A4.45,4.45,0,0,0,174.65,28.19Z"/><path class="cls-1" d="M117,21.2a8.45,8.45,0,0,1-1.1,4.42,7.53,7.53,0,0,1-3.34,3,10.22,10.22,0,0,1-3.13.91,9.66,9.66,0,0,1-2,0,8.92,8.92,0,0,1-1.61-.29,7,7,0,0,1-4.54-3.74,9.91,9.91,0,0,1-.8-2.6,8.64,8.64,0,0,1,.31-4.31,7.28,7.28,0,0,1,2.75-3.68,9.25,9.25,0,0,1,4.21-1.62,8.72,8.72,0,0,1,6,1.16,6.71,6.71,0,0,1,2.46,2.79A8.76,8.76,0,0,1,117,21.2Zm-12-1c0,.26,0,.52,0,.78a13.51,13.51,0,0,0,.5,3.41,6.9,6.9,0,0,0,1.23,2.54,3.61,3.61,0,0,0,2,1.27,2.53,2.53,0,0,0,2.7-1.18,7.44,7.44,0,0,0,.64-1.82,12.36,12.36,0,0,0,.24-3.09,15.36,15.36,0,0,0-.3-3,8.43,8.43,0,0,0-1.17-3,3.54,3.54,0,0,0-1.73-1.46,2.49,2.49,0,0,0-2.8.51,3.73,3.73,0,0,0-.93,1.55A11.94,11.94,0,0,0,104.93,20.2Z"/><path class="cls-1" d="M147.93,24.14c.23-.51.45-.94.62-1.38q1-2.66,1.91-5.31a6.78,6.78,0,0,0,.29-1.18,1,1,0,0,0-.86-1.35c-.26-.07-.5-.16-.76-.22s-.51-.09-.77-.14a.93.93,0,0,1,.12-1h6.84a1.07,1.07,0,0,1,.12.9l-1.14.31a2.07,2.07,0,0,0-1.41,1.23c-.4.89-.77,1.79-1.15,2.68-.88,2.13-1.73,4.27-2.66,6.38-.87,1.94-1.8,3.85-2.74,5.76-.58,1.18-1.23,2.33-1.86,3.48q-1.08,2-2.17,3.94c-.1.17-.22.33-.37.55a4,4,0,0,1-2.38-1v-.68c4.05-4.89,5.23-7.09,5.72-8.24-.4-.92-.81-1.84-1.19-2.78-.79-1.95-1.56-3.91-2.36-5.85-.49-1.18-1-2.35-1.51-3.51-.09-.21-.22-.4-.31-.6a2.56,2.56,0,0,0-2-1.47l-.36-.08-.28-.11c.05-.28.09-.55.13-.85h8.51c.26.21.21.51.16.87l-1,.27c-.53.17-.69.43-.52,1,.27.85.58,1.68.9,2.51.7,1.79,1.42,3.57,2.14,5.35A3.57,3.57,0,0,0,147.93,24.14Z"/><path class="cls-1" d="M73.44,19.19c-.1.25-.18.47-.28.74-.8.12-1.59.27-2.39.35-1.44.14-2.87.25-4.3.36-.87.06-1.75.09-2.62.14l-.54,0a2.5,2.5,0,0,0-.1.64,6.32,6.32,0,0,0,1.44,3.42,4.68,4.68,0,0,0,2.89,1.55,7.93,7.93,0,0,0,2.66-.06,6.23,6.23,0,0,0,2.37-1c.16-.11.3-.29.57-.2a1.82,1.82,0,0,1-.4,1.42,9.44,9.44,0,0,1-5.64,3,6.74,6.74,0,0,1-5.86-1.88,7.15,7.15,0,0,1-1.67-2.8,10.51,10.51,0,0,1-.49-4.38,7.65,7.65,0,0,1,5.58-6.94,7.44,7.44,0,0,1,3.48-.28A5.3,5.3,0,0,1,72,16.05a6.13,6.13,0,0,1,.74,2A1.33,1.33,0,0,0,73.44,19.19Zm-10.15.09a4.12,4.12,0,0,0,.65.08L68,19.24a.78.78,0,0,0,.72-.43c-.12-.56-.23-1.19-.38-1.81a4.4,4.4,0,0,0-.78-1.63,2,2,0,0,0-3.28,0,5.5,5.5,0,0,0-1,2.69A1.87,1.87,0,0,0,63.29,19.28Z"/><path class="cls-1" d="M85.06,26.58a1.35,1.35,0,0,1-.46,1.5,5.43,5.43,0,0,1-2.92,1.39,5.15,5.15,0,0,1-3.19-.4A3,3,0,0,1,77,27.53a4.38,4.38,0,0,1-.39-1.64c0-1.7-.07-3.41-.07-5.11,0-1.42,0-2.84,0-4.26a6.48,6.48,0,0,0-.07-.77c-.66-.4-1.41-.06-2.07-.39a3.42,3.42,0,0,1,.38-1.17l1.53-.33a.9.9,0,0,0,.24-.76V10.25c.45-.21.92-.4,1.36-.64.71-.39,1.41-.79,2.09-1.22.27-.16.51-.32.81-.2,0,1.77,0,3.51-.07,5.25,0,.05.06.1.12.2a35.93,35.93,0,0,0,4.23-.14c-.11.73-.21,1.4-.31,2.1a1.88,1.88,0,0,1-.33.05c-1,0-2,0-2.93,0h-.82s0,6,0,8.67a8.77,8.77,0,0,0,.19,1.25,1.88,1.88,0,0,0,1.79,1.46,4.09,4.09,0,0,0,2.12-.4A1,1,0,0,1,85.06,26.58Z"/><path class="cls-1" d="M98,18.14c-.24-.19-.42-.31-.59-.46a4.4,4.4,0,0,0-1.86-1,1.82,1.82,0,0,0-2.31,1.54,5.83,5.83,0,0,0-.06.73c0,2.29.05,4.58.09,6.87a9.73,9.73,0,0,0,.13,1.21,1,1,0,0,0,.8.82c.51.12,1,.19,1.55.28l.37,0a1,1,0,0,1-.09,1c-1.52,0-3-.12-4.56-.12s-3,.07-4.61.12v-1l1-.17c.65-.08.92-.32,1-1.14a12.28,12.28,0,0,0,.12-1.82c0-2.46,0-4.92,0-7.38a1.92,1.92,0,0,0-1.31-2c-.21-.08-.41-.18-.66-.29,0-.24.06-.47.1-.75l1.56-.28c.51-.1,1-.21,1.53-.34s1-.33,1.45-.46A6.55,6.55,0,0,1,93.28,13a21.22,21.22,0,0,0-.07,3.28c.36-.09.48-.35.66-.52.59-.58,1.15-1.2,1.77-1.75A3.12,3.12,0,0,1,98,13.15a2.4,2.4,0,0,1,1.3.43,16,16,0,0,1,0,2.59A3.19,3.19,0,0,1,98,18.14Z"/><path class="cls-1" d="M6.25,16.71A20,20,0,0,0,8.8,22.25a43,43,0,0,0,2.54,3.48,38,38,0,0,0,3.79,4c.88.81,1.79,1.58,2.69,2.37l.47.44A16,16,0,0,1,3.87,26.85,45.43,45.43,0,0,1,6.25,16.71Z"/><path class="cls-1" d="M31.45,22.87c-.67,1.08-1.3,2.19-2,3.24a14.24,14.24,0,0,1-8.28,5.81l-1.85.49A51.4,51.4,0,0,1,12,25.35l1.95.28a15.56,15.56,0,0,0,1.93.18c1.3,0,2.6,0,3.89-.13a27.39,27.39,0,0,0,4.67-.76q2.37-.62,4.73-1.32c.75-.22,1.48-.53,2.22-.8Z"/><path class="cls-1" d="M22.09,24.76c4.23-5.27,6.39-11.42,7.53-18a16.06,16.06,0,0,1,2,15.36c-1.53.5-3.12,1.05-4.72,1.53A33.86,33.86,0,0,1,22.09,24.76Z"/><path class="cls-1" d="M29.06,6.06a50,50,0,0,1-2.5,9.63c-.3-.77-.59-1.56-.91-2.35a21.74,21.74,0,0,0-1.9-3.52A32.84,32.84,0,0,0,21,6.07,41.76,41.76,0,0,0,17,2L14.86.14A15.47,15.47,0,0,1,29.06,6.06Z"/><path class="cls-1" d="M3.29,26.15c-3.4-4.87-4.25-10-2.16-15.61a52.12,52.12,0,0,1,9.33-2.83c-.57.75-1.14,1.45-1.65,2.2a30.26,30.26,0,0,0-3.68,7.9,51,51,0,0,0-1.44,5.82C3.54,24.45,3.43,25.27,3.29,26.15Z"/><path class="cls-1" d="M1.38,9.84C3.93,4.48,7.92,1.15,13.75.21a39.48,39.48,0,0,1,7,6.68,19.11,19.11,0,0,0-4.4-.47A31.35,31.35,0,0,0,10.8,7,51.11,51.11,0,0,0,2.2,9.49C2,9.58,1.72,9.69,1.38,9.84Z"/></g></g></svg>